<svg width="42" height="62" viewBox="0 0 42 62" fill="none" xmlns="http://www.w3.org/2000/svg">
<path d="M2.059 18.278C2.49633 15.3807 3.31633 12.8387 4.519 10.652C5.72167 8.46533 7.225 6.64766 9.029 5.199C10.833 3.75033 12.883 2.67066 15.179 1.96C17.5023 1.222 20.0033 0.852995 22.682 0.852995C25.5247 0.852995 28.0667 1.263 30.308 2.083C32.5767 2.87566 34.49 3.969 36.048 5.363C37.606 6.757 38.795 8.38333 39.615 10.242C40.4623 12.1007 40.886 14.096 40.886 16.228C40.886 18.114 40.681 19.7813 40.271 21.23C39.8883 22.6513 39.3007 23.895 38.508 24.961C37.7427 26.027 36.786 26.929 35.638 27.667C34.5173 28.405 33.219 29.02 31.743 29.512C38.5763 31.7533 41.993 36.3043 41.993 43.165C41.993 46.199 41.4327 48.8777 40.312 51.201C39.1913 53.497 37.688 55.424 35.802 56.982C33.916 58.54 31.7157 59.7153 29.201 60.508C26.7137 61.2733 24.1033 61.656 21.37 61.656C18.4727 61.656 15.917 61.328 13.703 60.672C11.489 60.016 9.53467 59.032 7.84 57.72C6.17267 56.408 4.73767 54.768 3.535 52.8C2.33233 50.8047 1.28 48.4813 0.378 45.83L5.38 43.78C6.692 43.2333 7.90833 43.083 9.029 43.329C10.177 43.575 10.997 44.1763 11.489 45.133C12.0357 46.1717 12.6097 47.1283 13.211 48.003C13.8397 48.8777 14.5367 49.643 15.302 50.299C16.0673 50.9277 16.9283 51.4197 17.885 51.775C18.869 52.1303 19.9897 52.308 21.247 52.308C22.8323 52.308 24.2127 52.0483 25.388 51.529C26.5633 51.0097 27.5473 50.34 28.34 49.52C29.1327 48.6727 29.7203 47.7297 30.103 46.691C30.513 45.625 30.718 44.5727 30.718 43.534C30.718 42.1673 30.595 40.9373 30.349 39.844C30.103 38.7233 29.529 37.7803 28.627 37.015C27.7523 36.2223 26.4403 35.621 24.691 35.211C22.969 34.7737 20.6183 34.555 17.639 34.555V26.601C20.1263 26.601 22.1627 26.396 23.748 25.986C25.3333 25.576 26.577 25.002 27.479 24.264C28.381 23.526 28.996 22.6377 29.324 21.599C29.6793 20.5603 29.857 19.426 29.857 18.196C29.857 15.5993 29.1737 13.6177 27.807 12.251C26.4677 10.8843 24.5543 10.201 22.067 10.201C20.9737 10.201 19.9623 10.365 19.033 10.693C18.131 10.9937 17.311 11.4173 16.573 11.964C15.8623 12.5107 15.2473 13.153 14.728 13.891C14.2087 14.629 13.826 15.4353 13.58 16.31C13.0607 17.6767 12.391 18.5923 11.571 19.057C10.751 19.4943 9.562 19.59 8.004 19.344L2.059 18.278Z" fill="url(#paint0_linear_296_5688)"/>
<defs>
<linearGradient id="paint0_linear_296_5688" x1="22" y1="-32" x2="22" y2="91" gradientUnits="userSpaceOnUse">
<stop stop-color="#3BB96D"/>
<stop offset="1" stop-color="#279A59"/>
</linearGradient>
</defs>
</svg>
