<svg width="43" height="61" viewBox="0 0 43 61" fill="none" xmlns="http://www.w3.org/2000/svg">
<path d="M38.139 50.627C39.369 50.627 40.3257 50.9687 41.009 51.652C41.7197 52.3353 42.075 53.2373 42.075 54.358V61H0.829V57.31C0.829 56.5993 0.979334 55.834 1.28 55.014C1.58067 54.1667 2.08633 53.4013 2.797 52.718L20.427 35.047C21.9303 33.5437 23.256 32.1087 24.404 30.742C25.552 29.348 26.5087 27.995 27.274 26.683C28.0393 25.3437 28.6133 23.9907 28.996 22.624C29.3787 21.2573 29.57 19.8223 29.57 18.319C29.57 15.6677 28.8867 13.6587 27.52 12.292C26.1533 10.898 24.2263 10.201 21.739 10.201C20.6457 10.201 19.6343 10.365 18.705 10.693C17.803 10.9937 16.983 11.4173 16.245 11.964C15.5343 12.5107 14.9193 13.153 14.4 13.891C13.8807 14.629 13.498 15.4353 13.252 16.31C12.76 17.6767 12.0903 18.5923 11.243 19.057C10.423 19.4943 9.24767 19.59 7.717 19.344L1.731 18.278C2.16833 15.3807 2.98833 12.8387 4.191 10.652C5.39367 8.46533 6.897 6.64766 8.701 5.199C10.505 3.75033 12.5687 2.67066 14.892 1.96C17.2153 1.222 19.7163 0.852995 22.395 0.852995C25.2103 0.852995 27.766 1.27666 30.062 2.124C32.3853 2.944 34.367 4.10567 36.007 5.609C37.647 7.085 38.918 8.87533 39.82 10.98C40.722 13.0847 41.173 15.408 41.173 17.95C41.173 20.1367 40.8587 22.1593 40.23 24.018C39.6013 25.8767 38.7403 27.6533 37.647 29.348C36.581 31.0153 35.3373 32.6417 33.916 34.227C32.4947 35.8123 30.9913 37.4113 29.406 39.024L16.778 51.939C18.172 51.529 19.5523 51.2147 20.919 50.996C22.2857 50.75 23.5703 50.627 24.773 50.627H38.139Z" fill="url(#paint0_linear_296_5676)"/>
<defs>
<linearGradient id="paint0_linear_296_5676" x1="22" y1="-32" x2="22" y2="91" gradientUnits="userSpaceOnUse">
<stop stop-color="#3BB96D"/>
<stop offset="1" stop-color="#279A59"/>
</linearGradient>
</defs>
</svg>
